# xmcd
#
# Track frame offsets:
#	150
#	23922
#	37937
#	51452
#	64397
#	76915
#	90800
#	103855
#	117507
#	129710
#	142660
#
# Disc length: 2049 seconds
#
# Revision: 0
# Processed by: cddbd v1.5PL3 Copyright (c) Steve Scherf et al.
# Submitted via: dBpowerAMP V4.0
#
DISCID=8e07ff0b
DTITLE=Norteños Clan - Norteños de Corazón Puro
DYEAR=1994
DGENRE=Latin
TTITLE0=Popurri(Al Rojo Vivo)
TTITLE1=Tu y Yo
TTITLE2=Irresistible
TTITLE3=1+1=2 Enamorados
TTITLE4=Por Que No Vienes
TTITLE5=Amigo Mío
TTITLE6=La Novia De Mi Mejor Amigo
TTITLE7=Y Las Mariposas
TTITLE8=Nada Contigo
TTITLE9=Decidete
TTITLE10=Y Es Por Ti
EXTD=
EXTT0=
EXTT1=
EXTT2=
EXTT3=
EXTT4=
EXTT5=
EXTT6=
EXTT7=
EXTT8=
EXTT9=
EXTT10=
PLAYORDER=
